<svg width="65" height="74" viewBox="0 0 58 58" xmlns="http://www.w3.org/2000/svg">
<path d="M46.4 58H11.6C8.52349 58 5.57298 56.7779 3.39756 54.6024C1.22214 52.427 0 49.4765 0 46.4V11.6C0 8.52349 1.22214 5.57298 3.39756 3.39756C5.57298 1.22214 8.52349 0 11.6 0H46.4C49.4765 0 52.427 1.22214 54.6024 3.39756C56.7779 5.57298 58 8.52349 58 11.6V46.4C58 49.4765 56.7779 52.427 54.6024 54.6024C52.427 56.7779 49.4765 58 46.4 58ZM11.6 5.8C10.0617 5.8 8.58649 6.41107 7.49878 7.49878C6.41107 8.58649 5.8 10.0617 5.8 11.6V46.4C5.8 47.9383 6.41107 49.4135 7.49878 50.5012C8.58649 51.5889 10.0617 52.2 11.6 52.2H46.4C47.9383 52.2 49.4135 51.5889 50.5012 50.5012C51.5889 49.4135 52.2 47.9383 52.2 46.4V11.6C52.2 10.0617 51.5889 8.58649 50.5012 7.49878C49.4135 6.41107 47.9383 5.8 46.4 5.8H11.6ZM39.9098 42.8504C38.6557 42.9009 37.4045 42.6956 36.2323 42.2469C35.0602 41.7981 33.9917 41.1155 33.0919 40.2404C31.2081 38.0927 30.2418 35.2918 30.4007 32.4394C30.3424 29.6671 31.3313 26.9748 33.1702 24.8994C34.1315 23.883 35.2969 23.0814 36.5899 22.5472C37.8828 22.0129 39.2741 21.758 40.6725 21.7993H41.3482V15.9993C41.3482 15.5469 41.7165 15.1786 42.1689 15.1757H45.9882C46.2002 15.1678 46.4074 15.2403 46.5682 15.3787C46.6467 15.453 46.7084 15.5431 46.7494 15.6431C46.7904 15.7431 46.8097 15.8507 46.806 15.9587V38.2278C46.7915 38.9963 46.8321 39.7648 46.922 40.5275V40.6C46.9265 40.7844 46.8693 40.965 46.7596 41.1133C46.6649 41.2297 46.5449 41.3229 46.4087 41.3859C44.3961 42.3466 42.195 42.8478 39.9649 42.8533L39.9098 42.8504ZM37.2534 28.014L37.2389 28.0314C36.3204 29.2403 35.8582 30.7346 35.9339 32.2509C35.8148 33.8309 36.2711 35.4006 37.2186 36.6705C37.9929 37.5231 39.1094 37.9871 40.2607 37.9291C40.6262 37.9345 40.9912 37.8976 41.3482 37.8189V26.6568C41.0775 26.5989 40.8014 26.5706 40.5246 26.5727C39.9059 26.5561 39.2912 26.6776 38.7253 26.9285C38.1595 27.1793 37.6566 27.5531 37.2534 28.0227V28.014ZM29.6525 42.514H25.4446C25.2283 42.5281 25.013 42.4742 24.8289 42.3598C24.6448 42.2454 24.5011 42.0762 24.418 41.876L23.809 40.6L23.7945 40.5681L23.2 39.382L23.0144 38.9963C22.0893 37.0881 21.1352 35.1219 20.1782 33.0977C18.8476 36.0458 17.4777 38.976 16.0689 41.8876V41.9166L16.0544 41.9427C15.9573 42.1053 15.8219 42.2418 15.66 42.34C15.4954 42.4383 15.3065 42.4885 15.1148 42.485H11.1389C10.9726 42.4932 10.8082 42.4469 10.6706 42.3532C10.5329 42.2596 10.4296 42.1236 10.3762 41.9659C10.3413 41.8458 10.3344 41.7193 10.356 41.5962C10.3776 41.473 10.4272 41.3564 10.5009 41.2554L16.965 28.8985L10.7126 16.3879C10.6285 16.2662 10.5806 16.1231 10.5744 15.9753C10.5683 15.8275 10.6041 15.681 10.6778 15.5527C10.7487 15.4363 10.8484 15.3402 10.9672 15.2737C11.0861 15.2071 11.2202 15.1724 11.3564 15.1728H15.515C15.717 15.162 15.918 15.2082 16.095 15.3062C16.2749 15.416 16.4136 15.5822 16.4894 15.7789C18.0438 19.0414 19.3546 21.8689 20.5001 24.3774C21.924 21.1874 23.4378 17.9452 24.4528 15.7963L24.4673 15.7644L24.4847 15.7354V15.7035C24.5574 15.5795 24.6483 15.467 24.7544 15.37C24.9338 15.2202 25.1616 15.1409 25.3953 15.1467H29.29C29.4389 15.1427 29.5858 15.182 29.7129 15.2597C29.8401 15.3374 29.9419 15.4502 30.0063 15.5846C30.0575 15.7077 30.0782 15.8413 30.0666 15.9741C30.055 16.1069 30.0114 16.235 29.9396 16.3473L23.6843 28.4896L30.3021 41.2496C30.3717 41.3604 30.4154 41.4855 30.43 41.6155C30.4445 41.7456 30.4296 41.8772 30.3862 42.0007C30.3315 42.1509 30.2316 42.2804 30.1002 42.3713C29.9687 42.4622 29.8123 42.51 29.6525 42.5082V42.514Z" fill="white"/>
</svg>
