<svg width="82" height="73" viewBox="0 0 82 65" xmlns="http://www.w3.org/2000/svg">
<path fill-rule="evenodd" clip-rule="evenodd" d="M17.0321 0C12.3513 0 8.89017 4.07631 9.04733 8.4926C9.19425 12.7423 9.00292 18.2397 7.61233 22.724C6.2115 27.2185 3.854 30.0675 0 30.4346V34.5654C3.854 34.9291 6.21492 37.7781 7.60892 42.276C9.00292 46.7603 9.19425 52.2577 9.04392 56.504C8.89017 60.9237 12.3513 65 17.0321 65H64.9748C69.6556 65 73.1167 60.9237 72.9595 56.504C72.8126 52.2577 73.0039 46.7603 74.3945 42.276C75.7919 37.7781 78.146 34.9325 82 34.5654V30.4346C78.146 30.0675 75.7919 27.2185 74.3945 22.724C73.0039 18.2363 72.8126 12.7389 72.9595 8.4926C73.1167 4.07291 69.6522 0 64.9748 0H17.0321ZM55.5892 40.0118C55.5892 46.0973 51.0279 49.7861 43.46 49.7861H30.5758C30.2069 49.7861 29.8532 49.6403 29.5925 49.3808C29.3317 49.1213 29.1852 48.7694 29.1852 48.4024V16.5942C29.1861 16.2278 29.333 15.8768 29.5937 15.618C29.8544 15.3592 30.2075 15.2139 30.5758 15.2139H43.3883C49.6988 15.2139 53.8433 18.6137 53.8433 23.8391C53.8433 27.5041 51.0553 30.7848 47.5053 31.3628V31.5532C52.3399 32.0801 55.5926 35.4119 55.5926 40.0118H55.5892ZM42.0592 19.5962H34.7133V29.9247H40.9009C45.6842 29.9247 48.3219 28.0072 48.3219 24.5803C48.3219 21.3709 46.0533 19.5962 42.0592 19.5962ZM34.7133 34.0214V45.4004H42.3325C47.3106 45.4004 49.9517 43.4115 49.9517 39.6752C49.9517 35.9355 47.2388 34.0214 42.0113 34.0214H34.7133Z" fill="white"/>
</svg>
