<svg width="57" height="77" viewBox="0 0 57 77" fill="none" xmlns="http://www.w3.org/2000/svg">
<path d="M14 0H21.9414V3.9427H17.3207V7.8854H21.9414V11.8281H14V0ZM23.5278 0H31.4722V3.43066H26.8516V4.1146H31.4722V12H23.5278V8.4011H28.1484V7.7135H23.5278V0ZM33.0617 0H41V3.43066H36.3793V4.1146H41V12H33.0617V8.4011H37.6824V7.7135H33.0617V0Z" fill="white"/>
<path fill-rule="evenodd" clip-rule="evenodd" d="M28.4715 77L6.48217 70.701L0 14H57L50.521 70.6944L28.4715 77ZM12.8155 39.6665L13.4203 46.619H36.7808L35.9987 55.6363L28.481 57.7338H28.4747L20.9697 55.6428L20.4883 50.0985H13.7212L14.6648 61.0172L28.4715 64.9704L42.3003 61.0172L43.985 41.5321L44.1497 39.6665L45.3657 25.5885H11.6027L12.217 32.5442H37.981L37.3667 39.6665H12.8155V39.6665Z" fill="white"/>
</svg>
