<svg width="48" height="74" viewBox="0 0 48 74" fill="none" xmlns="http://www.w3.org/2000/svg">
<path d="M36.2188 24.663C39.3755 24.5667 42.3712 23.2253 44.5705 20.9232C46.7699 18.6211 48 15.5394 48 12.3315C48 9.12358 46.7699 6.04182 44.5705 3.73972C42.3712 1.43762 39.3755 0.096231 36.2188 0H11.9351C8.77846 0.096231 5.78281 1.43762 3.58345 3.73972C1.38408 6.04182 0.153974 9.12358 0.153974 12.3315C0.153974 15.5394 1.38408 18.6211 3.58345 20.9232C5.78281 23.2253 8.77846 24.5667 11.9351 24.663C8.75086 24.719 5.71565 26.0432 3.48328 28.3504C1.25091 30.6576 0 33.7632 0 36.9981C0 40.2331 1.25091 43.3387 3.48328 45.6459C5.71565 47.9531 8.75086 49.2773 11.9351 49.3333C8.76642 49.4122 5.75359 50.7462 3.53992 53.0506C1.32624 55.3549 0.0871268 58.447 0.0871268 61.6667C0.0871268 64.8863 1.32624 67.9784 3.53992 70.2828C5.75359 72.5871 8.76642 73.9211 11.9351 74C15.1554 73.998 18.2431 72.6975 20.5199 70.3842C22.7966 68.0708 24.076 64.934 24.077 61.663V24.663H36.2188Z" fill="white"/>
<path d="M34 47C39.5228 47 44 42.299 44 36.5C44 30.701 39.5228 26 34 26C28.4772 26 24 30.701 24 36.5C24 42.299 28.4772 47 34 47Z" fill="white"/>
</svg>
