<svg width="58" height="77" viewBox="0 0 58 77" xmlns="http://www.w3.org/2000/svg">
<path d="M6.64453 0H10.1009V3.41486H13.2634V0H16.7198V10.3372H13.2634V6.87764H10.1009V10.3372H6.64773V0H6.64453ZM21.2623 3.42764H18.2212V0H27.763V3.42764H24.7187V10.3372H21.2623V3.42764ZM29.2772 0H32.8805L35.0974 3.63208L37.3112 0H40.9145V10.3372H37.4741V5.21333L35.0974 8.89014H35.0368L32.6569 5.21653V10.3372H29.2772V0ZM42.6331 0H46.0927V6.92236H50.9483V10.3404H42.6331V0Z" fill="white"/>
<path fill-rule="evenodd" clip-rule="evenodd" d="M6.53583 70.5077L0 15.0681H57.5L50.961 70.5013L28.7181 76.6666L6.53583 70.5077ZM19.7512 40.1605L19.1315 33.1966H45.1503L45.7572 26.3988H11.7044L13.5381 46.9614H37.1035L36.3144 55.7781L28.7308 57.8289H28.7244L21.1536 55.7845L20.6681 50.3635H13.8383L14.7903 61.0394L28.7181 64.9046L42.6682 61.0394L44.3676 41.9877L44.5337 40.1637H19.7512V40.1605Z" fill="white"/>
</svg>
