<svg width="61" height="74" viewBox="0 0 61 74" fill="none" xmlns="http://www.w3.org/2000/svg">
<path d="M32.0594 0C31.5781 0 31.0852 0.0254341 30.5761 0.062429C17.5361 1.09598 20.9957 14.8859 20.8013 19.4848C20.5606 22.8444 19.8757 25.5057 17.5616 28.796C14.824 32.0354 10.9918 37.2748 9.17294 42.7269C8.31904 45.2911 7.90713 47.9316 8.29358 50.4126C8.14804 50.5204 8.02862 50.6594 7.94415 50.8196C7.1481 51.6519 6.55569 52.6762 5.90543 53.4092C5.29219 54.0219 4.41284 54.23 3.44554 54.6393C2.48287 55.0578 1.40913 55.4694 0.78201 56.7457C0.504318 57.326 0.35853 57.9503 0.372415 58.6024C0.372415 59.2035 0.458036 59.8302 0.541344 60.251C0.724158 61.4787 0.902344 62.4915 0.661677 63.2383C-0.108918 65.3308 -0.192226 66.7644 0.337703 67.8141C0.876888 68.85 1.98766 69.2592 3.22801 69.6708C5.7365 70.2835 9.12203 70.0893 11.7994 71.5113C14.6527 72.9564 17.5592 73.583 19.8733 72.9703C20.6716 72.7915 21.4199 72.4372 22.0639 71.9333C22.708 71.4293 23.2316 70.7884 23.5967 70.057C25.404 70.0454 27.3919 69.2246 30.5645 69.0211C32.7212 68.8384 35.4218 69.8512 38.5181 69.6338C38.6014 70.0569 38.7101 70.2466 38.8791 70.6697V70.6812C40.0824 73.0767 42.3132 74.1611 44.7013 73.9807C47.0733 73.7888 49.6049 72.3321 51.6529 69.9483C53.606 67.5991 56.848 66.6095 58.9932 65.3239C60.067 64.7066 60.9347 63.8788 60.9949 62.6857C61.0667 61.4579 60.3817 60.1816 58.8011 58.4475V58.1446L58.7896 58.133C58.2596 57.5203 58.019 56.4844 57.7413 55.2821C57.4752 54.0404 57.1859 52.8612 56.2232 52.0543C56.0289 51.8855 55.8368 51.8485 55.6331 51.645C55.4622 51.5246 55.2611 51.4542 55.0523 51.4415C56.3783 47.5016 55.8599 43.5893 54.5085 40.0586C52.8701 35.7117 49.989 31.9197 47.8069 29.3185C45.347 26.2225 42.938 23.286 42.9866 18.9391C43.0699 12.3008 43.7202 0.0323706 32.0548 0.00693656L32.0594 0ZM33.6862 10.4996H33.7348C34.3851 10.4996 34.9497 10.6939 35.5306 11.1031C36.1206 11.5216 36.5557 12.1274 36.8797 12.7517C37.206 13.5471 37.3772 14.1598 37.398 14.9783C37.398 14.9205 37.4096 14.8581 37.4096 14.8003V15.124C37.4096 15.0986 37.398 15.0778 37.398 15.0523L37.3865 14.9783C37.3865 15.7275 37.2314 16.4743 36.9306 17.1587C36.7876 17.5484 36.5609 17.902 36.2664 18.1946C36.1831 18.1484 36.0975 18.0998 36.0003 18.0628C35.6763 17.9171 35.3871 17.8709 35.121 17.6559C34.902 17.5682 34.6759 17.4994 34.4452 17.4501C34.591 17.272 34.8919 17.0408 35.0122 16.8373C35.1695 16.4512 35.2529 16.0304 35.2783 15.598V15.5356C35.2849 15.1182 35.2191 14.7028 35.0839 14.3078C34.952 13.8986 34.7854 13.6905 34.5309 13.2835C34.2647 13.0777 34.0125 12.8743 33.6978 12.8743H33.6515C33.3622 12.8743 33.1077 12.9575 32.8439 13.2835C32.5543 13.5687 32.339 13.9204 32.2168 14.3078C32.0486 14.6963 31.9545 15.1126 31.9391 15.5356V15.598C31.9391 15.8732 31.9645 16.1506 31.9969 16.4281C31.3953 16.2246 30.6478 16.005 30.1179 15.8015C30.089 15.5984 30.0728 15.3938 30.0693 15.1888V15.1263C30.0458 14.3121 30.2031 13.5027 30.5298 12.7563C30.782 12.0812 31.2402 11.5008 31.8558 11.117C32.3834 10.7216 33.0221 10.5043 33.6862 10.5043V10.4996ZM24.5501 10.6823H24.6589C25.094 10.6823 25.492 10.828 25.89 11.0916C26.3459 11.4893 26.7115 11.9818 26.9522 12.5228C27.2299 13.1402 27.3849 13.7644 27.4335 14.583V14.5945C27.4451 15.0038 27.4451 15.2234 27.4219 15.4153V15.6674L27.1697 15.7391C26.6999 15.9078 26.3274 16.1483 25.9502 16.3564C25.9872 16.0789 25.9872 15.8015 25.9617 15.5356V15.487C25.927 15.0801 25.8414 14.8743 25.7095 14.4627C25.6107 14.1462 25.4322 13.8604 25.1911 13.6327C25.0396 13.4976 24.8408 13.4278 24.6381 13.4384H24.564C24.3488 13.45 24.166 13.5587 23.9994 13.8477C23.7954 14.0821 23.6657 14.3719 23.6268 14.6801C23.5412 15.0038 23.5157 15.3529 23.5528 15.7044V15.7391C23.5898 16.1622 23.6615 16.368 23.805 16.7749C23.8981 17.0886 24.073 17.3719 24.3118 17.5957C24.3488 17.6327 24.3743 17.6582 24.4206 17.6674C24.2053 17.8501 24.0595 17.8871 23.8814 18.0905C23.7587 18.1761 23.6291 18.2848 23.4718 18.3102C23.1508 17.9245 22.868 17.5087 22.6271 17.0686C22.3319 16.4204 22.1683 15.7202 22.1458 15.0084C22.0991 14.3128 22.1806 13.6144 22.3865 12.9482C22.5693 12.3471 22.8585 11.7806 23.2658 11.2997C23.6638 10.8904 24.0619 10.6869 24.5548 10.6869L24.5501 10.6823ZM28.7803 15.9448C29.8055 15.9448 31.0366 16.1368 32.5292 17.1726C33.434 17.79 34.1467 18.005 35.7851 18.6062C36.5812 19.0293 37.037 19.4386 37.2661 19.8478V19.4386C37.376 19.6619 37.4372 19.906 37.4456 20.1547C37.4539 20.4035 37.4093 20.6511 37.3147 20.8814C36.9283 21.8455 35.7226 22.8698 34.0264 23.4826V23.4941C33.2049 23.9034 32.4829 24.5184 31.6382 24.9277C30.7843 25.3369 29.817 25.8318 28.5165 25.7485C28.0455 25.7692 27.575 25.6993 27.1304 25.5427C26.7876 25.3609 26.4575 25.1562 26.1422 24.93C25.5406 24.5207 25.0222 23.9057 24.2516 23.4964V23.4849H24.2401C22.9974 22.7265 22.3355 21.9057 22.118 21.2929C21.9144 20.4629 22.1064 19.8501 22.722 19.4409C23.407 19.0316 23.8883 18.6085 24.203 18.405C24.527 18.1761 24.6496 18.0905 24.7468 18.0073H24.7584V17.9958C25.2768 17.3691 26.0936 16.5506 27.3502 16.1391C27.7691 16.0304 28.255 15.9472 28.7826 15.9472L28.7803 15.9448ZM37.4096 22.5415C38.5204 26.9139 41.1122 33.2608 42.776 36.3314C43.6554 37.98 45.4141 41.4483 46.1731 45.6541C46.6544 45.6426 47.1844 45.7119 47.7536 45.8576C49.753 40.7037 46.0782 35.1637 44.4028 33.6215C43.7155 33.0088 43.6808 32.5972 44.0164 32.5972C45.8376 34.2342 48.2211 37.4412 49.0889 41.0876C49.4869 42.7362 49.5864 44.498 49.1629 46.2414C49.3666 46.3247 49.5725 46.4333 49.79 46.4449C52.9719 48.0981 54.1521 49.3374 53.5852 51.1895V51.0577C53.407 51.0485 53.2126 51.0577 53.0321 51.0577H52.9835C53.4556 49.6149 52.4189 48.5051 49.6952 47.2773C46.8743 46.0495 44.6203 46.2414 44.2339 48.7108C44.2066 48.8503 44.1911 48.9919 44.1876 49.134C43.9678 49.2056 43.7525 49.2889 43.5373 49.3259C42.2114 50.1583 41.4986 51.3976 41.0913 52.9884C40.6933 54.637 40.573 56.5515 40.4642 58.7573C40.3902 59.7932 39.9343 61.3446 39.4738 62.9215C34.8456 66.2326 28.4216 67.6661 22.9766 63.9574C22.6248 63.3562 22.2152 62.8013 21.7339 62.3088C21.5028 61.9262 21.2149 61.5808 20.88 61.2845C21.4446 61.2845 21.9283 61.1897 22.3147 61.0787C22.7561 60.8663 23.1031 60.4981 23.289 60.0452C23.6152 59.2244 23.289 57.8995 22.2152 56.4544C21.1577 55.0231 19.348 53.3953 16.7077 51.7722C14.7569 50.5444 13.66 49.0877 13.1532 47.4715C12.6464 45.8229 12.7181 44.1235 13.1046 42.4032C13.8636 39.1037 15.8052 35.8898 17.0478 33.8759C17.3718 33.6839 17.1566 34.299 15.782 36.8886C14.5625 39.2008 12.2623 44.5836 15.4048 48.7617C15.5256 45.7103 16.204 42.7066 17.4065 39.8991C19.1398 35.9614 22.7822 29.0989 23.0714 23.656C23.2172 23.7762 23.7356 24.0791 23.9624 24.2826C24.6265 24.6918 25.131 25.3069 25.7836 25.7161C26.4338 26.3289 27.253 26.752 28.4841 26.752C28.6044 26.7636 28.7132 26.7636 28.8197 26.7636C30.0855 26.7636 31.0759 26.3543 31.8928 25.9427C32.7837 25.5196 33.5103 24.9069 34.1814 24.7034H34.193C35.6277 24.2941 36.7732 23.4618 37.4119 22.5461L37.4096 22.5415ZM44.1598 50.1583C44.2802 52.0103 45.222 53.9988 46.8835 54.4058C48.6908 54.815 51.3058 53.3815 52.4027 52.0473L53.0529 52.0219C54.0272 51.9965 54.8371 52.0473 55.6655 52.8427L55.6771 52.8543C56.3158 53.467 56.6189 54.4913 56.8828 55.5526C57.1489 56.7919 57.3525 57.9596 58.1486 58.8382C59.6412 60.4637 60.1364 61.6313 60.1132 62.3551C60.0646 63.1597 59.5324 63.569 58.5697 64.184C56.6282 65.4256 53.1825 66.3759 50.9887 69.028C49.0819 71.3032 46.7586 72.5425 44.706 72.6998C42.658 72.8686 40.8854 72.0871 39.8487 69.9321L39.8371 69.9205C39.1868 68.6905 39.4645 66.7644 40.006 64.7158C40.5498 62.6556 41.332 60.5631 41.4408 58.8637C41.5495 56.6601 41.6699 54.7456 42.0309 53.2612C42.4034 51.8277 42.9843 50.8034 44.021 50.2392L44.1529 50.1652L44.1598 50.1583ZM10.7859 50.3132H10.8229C10.9918 50.3132 11.1492 50.3247 11.3042 50.3617C12.4613 50.5305 13.4864 51.386 14.463 52.6739L17.27 57.8047L17.2815 57.8162C18.029 59.4533 19.6072 61.0903 20.9448 62.8637C22.2846 64.7042 23.3214 66.3528 23.201 67.7031V67.7286C23.0182 70.0153 21.7177 71.2547 19.7299 71.7148C17.7397 72.124 15.0392 71.7148 12.3409 70.2812C9.35344 68.6326 5.79667 68.8361 3.51959 68.4245C2.388 68.2211 1.64054 67.7979 1.2888 67.1852C0.953254 66.5725 0.939369 65.3285 1.67525 63.3909V63.3817C2.03625 62.3458 1.77476 61.0579 1.59195 59.9249C1.42302 58.6949 1.33971 57.7422 1.72385 57.0324C2.21675 55.9965 2.95264 55.8046 3.85514 55.3838C4.75995 54.9746 5.83369 54.7711 6.67603 53.9387H6.6876V53.9271C7.47208 53.1109 8.06449 52.0866 8.74946 51.349C9.3303 50.7224 9.91808 50.3132 10.7859 50.3132ZM32.8809 22.338C31.541 22.9508 29.9628 23.9866 28.2874 23.9866C26.612 23.9866 25.2976 23.1704 24.3465 22.5531C23.8652 22.1346 23.4787 21.723 23.1894 21.5172C22.6827 21.1103 22.7428 20.4837 22.9604 20.4837C23.2959 20.5299 23.3584 20.9022 23.5736 21.1103C23.8767 21.3137 24.2377 21.723 24.682 22.1346C25.5869 22.7473 26.7925 23.5774 28.2851 23.5774C29.7823 23.5774 31.541 22.7473 32.6009 22.1346C33.2026 21.7253 33.9732 21.1103 34.6003 20.701C35.0816 20.2779 35.0608 19.8686 35.4542 19.8686C35.8522 19.9172 35.5653 20.2779 35.0099 20.8929C34.4429 21.3161 33.5751 21.9288 32.8786 22.338H32.8809ZM29.5417 17.4501V17.3923C29.5301 17.3298 29.5764 17.2605 29.6365 17.235C29.8517 17.1032 30.1896 17.1495 30.4326 17.2466C30.6247 17.2466 30.9255 17.4501 30.9023 17.6651C30.8769 17.8108 30.6362 17.8709 30.4789 17.8709C30.3123 17.8709 30.1896 17.7391 30.0461 17.6559C29.8888 17.6073 29.5856 17.6304 29.5393 17.4501H29.5417ZM27.8408 17.4501C27.7783 17.6327 27.489 17.6073 27.334 17.6559C27.1882 17.7391 27.0679 17.8709 26.899 17.8709C26.7416 17.8709 26.4894 17.8085 26.4755 17.6559C26.4546 17.4501 26.7416 17.2466 26.936 17.2466C27.1882 17.1472 27.5006 17.1009 27.7413 17.235C27.7899 17.2605 27.8524 17.3298 27.8269 17.3923V17.4501H27.8408Z" fill="white"/>
</svg>
