<svg width="75" height="74" viewBox="0 0 72 63" fill="none" xmlns="http://www.w3.org/2000/svg">
<path d="M72 31.5074C72 26.8206 66.027 22.3785 56.868 19.6254C58.983 10.4553 58.044 3.15693 53.904 0.819445C52.9009 0.267411 51.7655 -0.0104579 50.616 0.0147382V3.22767C51.291 3.22767 51.834 3.36031 52.29 3.60497C54.285 4.73097 55.152 9.01095 54.477 14.5201C54.315 15.876 54.051 17.3027 53.727 18.7588C50.6599 18.0326 47.547 17.5078 44.409 17.1877C42.5396 14.6536 40.5 12.2449 38.304 9.97778C43.089 5.60937 47.58 3.21588 50.634 3.21588V0C46.596 0 41.313 2.82679 35.97 7.72872C30.63 2.85921 25.344 0.0589528 21.309 0.0589528V3.27188C24.348 3.27188 28.854 5.65358 33.639 9.99251C31.584 12.1148 29.529 14.5201 27.576 17.1877C24.4315 17.5042 21.3131 18.0341 18.243 18.7735C17.9185 17.3934 17.6632 15.9985 17.478 14.5938C16.788 9.08169 17.64 4.80171 19.623 3.66392C20.061 3.40453 20.634 3.28662 21.309 3.28662V0.073691C20.079 0.073691 18.96 0.333084 17.994 0.878398C13.869 3.21588 12.945 10.4966 15.072 19.6402C5.943 22.4109 0 26.8354 0 31.5074C0 36.1941 5.973 40.6362 15.132 43.3864C13.017 52.5594 13.956 59.8578 18.096 62.1923C19.05 62.7406 20.166 63 21.396 63C25.434 63 30.717 60.1732 36.06 55.2713C41.4 60.1437 46.683 62.941 50.721 62.941C51.8793 62.9651 53.0233 62.6864 54.036 62.1334C58.161 59.7989 59.085 52.5182 56.958 43.3746C66.057 40.6215 72 36.1794 72 31.5074ZM52.89 21.8892C52.32 23.8165 51.6592 25.7169 50.91 27.5841C49.6835 25.24 48.3368 22.9585 46.875 20.7485C48.96 21.0521 50.97 21.4264 52.893 21.8892H52.89ZM46.17 37.2464C45.0712 39.1313 43.8911 40.9694 42.633 42.7556C38.2298 43.1369 33.8011 43.1418 29.397 42.7703C26.8708 39.2248 24.6616 35.4713 22.794 31.5516C24.6587 27.6227 26.8586 23.8559 29.37 20.2916C33.7722 19.9095 38.1998 19.9036 42.603 20.2739C43.821 21.9894 45.012 23.8229 46.155 25.7565C47.271 27.643 48.285 29.559 49.209 31.4926C48.2747 33.4497 47.2609 35.3692 46.17 37.2464V37.2464ZM50.91 35.3717C51.702 37.3024 52.38 39.2361 52.935 41.1108C51.015 41.5736 48.987 41.9627 46.89 42.2633C48.3457 40.0332 49.6874 37.7331 50.91 35.3717V35.3717ZM36.03 50.7584C34.665 49.373 33.3 47.8314 31.95 46.1424C33.27 46.2014 34.62 46.2456 35.985 46.2456C37.365 46.2456 38.73 46.2161 40.065 46.1424C38.745 47.8314 37.38 49.373 36.03 50.7584ZM25.11 42.2633C23.0872 41.9754 21.0791 41.5957 19.092 41.1255C19.635 39.2656 20.31 37.3467 21.072 35.4307C21.675 36.5803 22.308 37.7357 22.998 38.8912C23.688 40.0437 24.39 41.1697 25.11 42.2633ZM35.955 12.2563C37.32 13.6417 38.685 15.1833 40.035 16.8723C38.715 16.8134 37.365 16.7691 36 16.7691C34.62 16.7691 33.255 16.7986 31.92 16.8723C33.24 15.1833 34.605 13.6417 35.955 12.2563ZM25.095 20.7514C23.6396 22.9767 22.2979 25.2718 21.075 27.6283C20.3046 25.749 19.6288 23.8337 19.05 21.8892C20.97 21.4412 22.998 21.0521 25.095 20.7514ZM11.814 38.8028C6.618 36.6274 3.258 33.7712 3.258 31.5074C3.258 29.2436 6.618 26.3726 11.814 24.2119C13.074 23.6784 14.454 23.2009 15.879 22.7558C16.716 25.5797 17.817 28.5214 19.179 31.5368C17.8931 34.373 16.8056 37.2921 15.924 40.2737C14.5304 39.8497 13.1587 39.3588 11.814 38.8028V38.8028ZM19.71 59.4068C17.715 58.2867 16.848 54.0008 17.523 48.4946C17.685 47.1387 17.949 45.7091 18.273 44.253C21.147 44.9457 24.288 45.4792 27.591 45.827C29.4605 48.3611 31.5001 50.7697 33.696 53.037C28.911 57.4054 24.42 59.7989 21.366 59.7989C20.7898 59.805 20.221 59.6714 19.71 59.4098V59.4068ZM54.522 48.421C55.212 53.9301 54.36 58.213 52.377 59.3508C51.939 59.6102 51.366 59.7252 50.691 59.7252C47.652 59.7252 43.146 57.3464 38.361 53.0045C40.5478 50.7468 42.5736 48.3437 44.424 45.8123C47.5685 45.4958 50.6869 44.9659 53.757 44.2265C54.096 45.6826 54.357 47.0798 54.522 48.421V48.421ZM60.171 38.8028C58.911 39.3363 57.531 39.8138 56.106 40.2589C55.2089 37.2621 54.1064 34.3284 52.806 31.4779C54.156 28.4801 55.239 25.5531 56.061 22.7411C57.4591 23.1665 58.8357 23.6573 60.186 24.2119C65.382 26.3873 68.742 29.2436 68.742 31.5074C68.727 33.7712 65.367 36.6422 60.171 38.8028V38.8028Z" fill="white"/>
<path d="M35.985 38.0983C37.7641 38.0983 39.4703 37.4039 40.7283 36.1679C41.9863 34.9318 42.693 33.2554 42.693 31.5074C42.693 29.7594 41.9863 28.0829 40.7283 26.8469C39.4703 25.6108 37.7641 24.9164 35.985 24.9164C34.2059 24.9164 32.4997 25.6108 31.2417 26.8469C29.9837 28.0829 29.277 29.7594 29.277 31.5074C29.277 33.2554 29.9837 34.9318 31.2417 36.1679C32.4997 37.4039 34.2059 38.0983 35.985 38.0983V38.0983Z" fill="white"/>
</svg>
