<svg width="95" height="74" viewBox="0 0 95 69" fill="none" xmlns="http://www.w3.org/2000/svg">
<path d="M44.801 52.1649C44.7565 52.2511 44.7119 52.3201 44.801 52.1649V52.1649ZM81.7761 39.6597C78.7898 39.6597 75.8451 40.3209 73.1676 41.6001C72.2919 39.8896 71.3865 38.3948 71.2381 37.2736C71.06 35.9656 70.867 35.1894 71.0748 33.637C71.2826 32.0847 72.2177 29.8855 72.2028 29.7273C72.188 29.5692 71.995 28.7787 70.0804 28.7643C68.1657 28.7499 66.5182 29.1236 66.3253 29.6124C65.9865 30.5053 65.7234 31.4234 65.5386 32.3578C65.1973 34.0395 61.7123 40.0478 59.7383 43.1812C59.0852 41.9595 58.536 40.8814 58.4173 40.019C58.2392 38.711 58.0462 37.9348 58.254 36.3824C58.4618 34.8301 59.3969 32.6309 59.382 32.4727C59.3672 32.3146 59.1743 31.5241 57.2626 31.5097C55.3509 31.4953 53.7004 31.869 53.5075 32.3578C53.3145 32.8465 53.1067 33.9964 52.7208 35.1032C52.3349 36.2099 47.6893 46.2141 46.4752 48.8158C45.8518 50.1382 45.3175 51.2018 44.9316 51.9205C44.8722 52.0355 44.8277 52.1074 44.798 52.1649C44.8425 52.093 44.8722 52.0212 44.8722 52.0499C44.5457 52.668 44.3527 53.0129 44.3527 53.0129V53.0273C44.1004 53.4873 43.8184 53.9041 43.6848 53.9041C43.5958 53.9041 43.4028 52.6967 43.7294 51.0437C44.427 47.5653 46.0745 42.1607 46.0596 41.9738C46.0448 41.8732 46.3713 40.9389 44.9761 40.4358C43.6255 39.9615 43.1357 40.7521 43.0169 40.7521C42.8982 40.7521 42.8092 41.0395 42.8092 41.0395C42.8092 41.0395 44.3082 34.945 39.9297 34.945C37.1988 34.945 33.3991 37.8486 31.532 40.479C30.3594 41.097 27.8214 42.4338 25.1498 43.8568L22.0774 45.4954C22.0032 45.4236 21.9439 45.3517 21.8696 45.2798C16.5561 39.789 6.74832 35.9081 7.16391 28.5343C7.31233 25.8464 8.27708 18.7889 26.0255 10.2221C40.5709 3.20763 52.1984 5.13372 54.2021 9.41712C57.0815 15.526 47.9832 26.8957 32.8797 28.5343C27.1209 29.1524 24.096 26.9963 23.339 26.1914C22.5524 25.3433 22.4337 25.3002 22.1368 25.4583C21.647 25.717 21.9587 26.4645 22.1368 26.9101C22.5821 28.0456 24.4374 30.0579 27.5988 31.0641C30.3743 31.9409 37.1246 32.4296 45.2848 29.368C54.4544 25.947 61.5935 16.4172 59.4978 8.4397C57.3665 0.332863 43.486 -2.3263 30.3624 2.18709C22.5405 4.87499 14.0834 9.1009 8.00101 14.6061C0.772815 21.1605 -0.381915 26.8669 0.0930381 29.253C1.78506 37.7192 13.834 43.2387 18.6548 47.3209L17.9869 47.6803C15.5676 48.8445 6.3832 53.5017 4.08265 58.4175C1.48525 63.9946 4.51307 67.9905 6.49897 68.5367C12.703 70.204 19.0526 67.1999 22.4663 62.2697C25.88 57.3395 25.4645 50.9 23.8912 47.9677C23.8763 47.9246 23.8466 47.8959 23.8318 47.8527C25.6128 46.8311 27.4089 45.8344 29.2196 44.863C28.6259 46.4154 28.1954 48.284 27.9728 50.9862C27.7056 54.1485 29.0563 58.245 30.8077 59.8549C31.5795 60.5592 32.5116 60.5736 33.0934 60.5736C35.1416 60.5736 36.0618 58.935 37.086 56.9801C38.3476 54.5941 39.4607 51.8199 39.4607 51.8199C39.4607 51.8199 38.0656 59.3231 41.88 59.3231C43.2752 59.3231 44.6704 57.5838 45.2938 56.6927V56.707C45.2938 56.707 45.3234 56.6495 45.3976 56.5345C45.5461 56.3189 45.6203 56.1896 45.6203 56.1896V56.1464C46.1843 55.2121 47.4162 53.0704 49.2715 49.5345C51.6759 44.9636 53.9735 39.2572 53.9735 39.2572C54.1962 40.5106 54.5049 41.7496 54.8937 42.9656C55.3093 44.3312 56.185 45.826 56.8826 47.2778C56.3186 48.0252 55.9772 48.4564 55.9772 48.4564C55.9772 48.4679 55.9832 48.4766 55.9921 48.4852C55.5468 49.0601 55.0422 49.6782 54.5227 50.2819C52.6258 52.4667 50.3668 54.9678 50.07 55.6865C49.7138 56.5345 49.8028 57.167 50.4856 57.6557C50.9902 58.0294 51.8808 58.0869 52.8158 58.015C54.5227 57.9001 55.7249 57.4976 56.3038 57.2389C57.3714 56.8684 58.3805 56.3556 59.3019 55.7152C61.1572 54.3928 62.2852 52.4955 62.1813 49.9944C62.1219 48.6146 61.6618 47.2347 61.0978 45.941C61.2611 45.711 61.4392 45.4667 61.6025 45.2223C63.5339 42.4313 65.2742 39.5206 66.8121 36.5089C67.0347 37.7623 67.3405 39.0013 67.7323 40.2174C68.0885 41.3816 68.7861 42.6609 69.4243 43.9114C66.6637 46.0819 64.9568 48.5973 64.3661 50.2503C63.2678 53.3119 64.1286 54.6918 65.7464 55.008C66.4737 55.1518 67.5127 54.8212 68.2845 54.5049C69.4303 54.1341 70.5108 53.5965 71.4874 52.9095C73.3427 51.5871 75.1386 49.7328 75.0169 47.2174C74.9724 46.0819 74.6459 44.9464 74.2154 43.8539C76.5457 42.9053 79.5735 42.3878 83.4325 42.819C91.6967 43.7533 93.3145 48.7554 93.0028 50.8396C92.6911 52.9238 90.9546 54.0881 90.3757 54.4331C89.7969 54.7781 89.6188 54.9074 89.6633 55.1662C89.7375 55.5399 90.0047 55.5255 90.4945 55.4393C91.1772 55.3243 94.8284 53.7431 94.9917 49.8766C95.2292 44.9895 90.3757 39.6137 81.782 39.6568L81.7761 39.6597ZM18.076 60.4586C15.345 63.3477 11.5186 64.4401 9.87114 63.5202C8.10491 62.5256 8.80249 58.2738 12.1687 55.1949C14.217 53.3263 16.8589 51.6014 18.6103 50.5378C19.011 50.3078 19.5899 49.9628 20.3023 49.546C20.3602 49.51 20.4196 49.4765 20.4804 49.4454C20.614 49.3591 20.7624 49.2873 20.9108 49.201C22.1398 53.5707 20.9554 57.4228 18.076 60.4557V60.4586ZM38.0181 47.3209C37.0682 49.5776 35.0674 55.3271 33.8474 55.0253C32.8084 54.7666 32.1702 50.3825 33.6396 46.0704C34.3817 43.8999 35.955 41.3126 36.89 40.3065C38.3891 38.6822 40.0366 38.1648 40.4225 38.8116C40.942 39.6597 38.6118 45.9123 38.0181 47.3209ZM54.493 54.939C54.0923 55.1403 53.7212 55.2696 53.5431 55.169C53.4095 55.0972 53.7064 54.824 53.7064 54.824C53.7064 54.824 55.7694 52.6824 56.5858 51.7049C57.0607 51.13 57.6099 50.4544 58.2036 49.707C58.2036 49.7788 58.2184 49.8507 58.2184 49.937C58.2006 52.5099 55.6477 54.2491 54.49 54.939H54.493ZM67.198 52.1361C66.9012 51.9349 66.9457 51.2593 67.9401 49.1608C68.326 48.3415 69.2166 46.9616 70.7602 45.6392C70.9353 46.1394 71.0303 46.6626 71.0422 47.1915C71.0273 50.4257 68.6377 51.6331 67.198 52.1361V52.1361Z" fill="white"/>
</svg>
