<svg width="65" height="65" viewBox="0 0 65 65" fill="none" xmlns="http://www.w3.org/2000/svg">
<path d="M0.632734 22.3744C0.632734 22.3744 -0.987411 21.2142 0.957318 19.6709L5.49317 15.6552C5.49317 15.6552 6.78873 14.3048 8.16197 15.4813L50 46.841V61.8769C50 61.8769 49.9806 64.2407 46.9206 63.9799L0.62996 22.3716L0.632734 22.3744Z" fill="white"/>
<path d="M11.2814 31.9579L0.493285 41.6859C0.493285 41.6859 -0.616606 42.5029 0.493285 43.9653L5.50167 48.4862C5.50167 48.4862 6.69203 49.7525 8.44843 48.3091L19.8831 39.7087L11.2814 31.9579ZM30.2162 32.0369L50 17.0529L49.8696 2.06062C49.8696 2.06062 49.0233 -1.21289 46.2069 0.491947L19.8831 24.2589L30.2162 32.0369V32.0369Z" fill="white"/>
<path d="M44.6015 64.1607C45.793 65.3199 47.2377 64.9407 47.2377 64.9407L63.2277 57.4467C65.2739 56.1196 64.9861 54.473 64.9861 54.473V9.71765C64.9861 7.7514 62.8708 7.07161 62.8708 7.07161L49.0105 0.715133C45.9829 -1.06425 44 1.03743 44 1.03743C44 1.03743 46.5499 -0.709454 47.7989 2.59743V61.7746C47.7989 62.1809 47.7068 62.579 47.5255 62.9392C47.16 63.6407 46.3686 64.2934 44.4691 64.0226L44.6015 64.1607V64.1607Z" fill="white"/>
</svg>
